<svg xmlns="http://www.w3.org/2000/svg" width="867.45" height="280" viewBox="0 0 867.45 280"><path d="M230.29,99.07c-4.73,2-11.32,3.75-19.6,5.25-16.7,3-38.62,4.68-61.79,4.68s-45.36-1.66-62.31-4.66c-8.42-1.49-15.14-3.25-20-5.23A29.89,29.89,0,0,1,62,96.81V219.52c0,9.31,39.37,16.39,86.9,16.39s85.82-7.67,85.82-16.39V96.84A28.26,28.26,0,0,1,230.29,99.07ZM113.94,210.21c-11.48-1.09-23-2.18-34.46-3.81V187.28c11.49,1.09,23,2.18,34.46,2.73Zm51.4,1.14q-17.24.81-34.46,0V134.8h34.46Zm50.81-4.95c-11.49,1.63-23,3.27-34.47,3.81V154.45c11.49,0,23-.54,34.47-1.08Z" style="fill:#fff"/><path d="M148.9,72.45c-47.53,0-86.9,7.09-86.9,15.31s39.37,15.3,86.9,15.3,85.82-7.13,85.82-15.3S196.49,72.45,148.9,72.45Z" style="fill:#fff"/><path d="M299.29,179.06A97.65,97.65,0,0,0,343,189.46c12.58,0,26.79-2.18,26.79-10.4,0-8.76-13.12-13.12-27.34-15.3-20.79-3.26-49.76-9.31-49.76-39.91,0-31.14,27.88-39.36,54.67-39.36,24.61,0,41,7.13,50.31,12.57l-9.31,25.7c-7.68-4.9-23-10.39-41-10.39-12.58,0-24.07,2.72-24.07,10.39,0,9.86,15.85,10.4,24.61,11.49,36.64,6,52.49,21.34,52.49,45.36,0,31.15-32.78,37.19-57.39,37.19-22.43,0-40.46-5.45-53-12.58C290,204.76,299.29,179.06,299.29,179.06ZM526.12,278h-30.6V215.11c-6,2.73-13.66,3.27-21.34,3.27-36.1,0-63.43-20.25-63.43-65.06v-3.77c0-43.18,25.7-65.06,63.43-65.06,10.4,0,35,1.63,51.94,11.49V278ZM441.94,153.37c0,30.6,14.22,37.18,34.47,37.18,9.31,0,15.84-1.63,19.11-3.81V116.18c-4.9-2.18-10.94-3.81-20.25-3.81-20.8,0-33.33,7.13-33.33,37.18v3.82ZM544.74,37h31.69V219H544.74V37Z" style="fill:#fff"/><path d="M594.51,37h30.6V87.8c6-2.72,13.67-3.26,21.34-3.26,36.1,0,63.43,20.25,63.43,65.06v3.81c0,43.73-25.7,65.07-63.43,65.07-10.4,0-35-1.63-51.94-11.49ZM679.18,149.5c0-30.6-14.71-37.68-35-37.68-8.76,0-15.84,2.18-18.57,3.81V186.2c4.36,2.17,11,3.81,20.26,3.81,20.79,0,33.32-7.13,33.32-37.19ZM742.66,37c10.4,0,18.57,7.68,18.57,17.48s-8.22,18-18.57,18c-9.85,0-18.57-8.22-18.57-18S732.26,37,742.66,37ZM727.31,91.07h30.6V218.43h-30.6Z" style="fill:#fff"/><path d="M774.3,204.27a13.83,13.83,0,0,1,1.89-7,13.41,13.41,0,0,1,5.15-5.15,14,14,0,0,1,7-1.88,13.82,13.82,0,0,1,7,1.88,13.55,13.55,0,0,1,5.15,5.15,14.06,14.06,0,0,1,0,14,14.08,14.08,0,0,1-19.19,5.3h0l-.17-.1a14.07,14.07,0,0,1-5.1-5.15A14.89,14.89,0,0,1,774.3,204.27Zm2.63,0a11.31,11.31,0,0,0,5.74,9.85,11.55,11.55,0,0,0,5.7,1.54,11.32,11.32,0,0,0,9.85-5.75,11.48,11.48,0,0,0,1.54-5.69,11.32,11.32,0,0,0-5.75-9.85,11.05,11.05,0,0,0-5.69-1.54,11.33,11.33,0,0,0-9.86,5.74A11,11,0,0,0,776.93,204.27ZM794,201a4.34,4.34,0,0,1-2.67,4.36l4.4,7.48H791l-3.27-6.34h-.89v6.34h-4.26V195.7h4.95a7.84,7.84,0,0,1,5,1.29,4.91,4.91,0,0,1,1.53,4Zm-7.18,2.38h.6a2,2,0,0,0,2.32-1.56h0a2,2,0,0,0,0-.77,2.4,2.4,0,0,0-.54-1.73,2.52,2.52,0,0,0-1.83-.5h-.55Z" style="fill:#fff"/></svg>