<svg xmlns="http://www.w3.org/2000/svg" width="867.45" height="280" viewBox="0 0 867.45 280"><path d="M233.69,88.67c0-9.31-38.28-16.39-85.82-16.39S62,79.41,62,88.13V219.35c0,9.31,39.37,16.39,86.9,16.39s85.82-7.68,85.82-16.39V87.58ZM114,210c-11.48-1.09-23-2.18-34.46-3.81V187.11c11.49,1.09,23,2.18,34.46,2.73Zm51.4,1.14q-17.22.81-34.46,0V134.62h34.46Zm50.81-5c-11.49,1.63-23,3.26-34.47,3.81V154.28c11.49,0,23-.54,34.47-1.09Z" style="fill:#eb5e5e"/><path d="M148.91,72.28c47.59,0,85.82,7.13,85.82,15.3s-38.28,15.3-85.82,15.3S62,95.8,62,87.58,101.38,72.28,148.91,72.28Z" style="fill:#d35455"/><path d="M299.3,178.89A97.65,97.65,0,0,0,343,189.29c12.58,0,26.79-2.18,26.79-10.4,0-8.76-13.12-13.12-27.33-15.3-20.8-3.27-49.77-9.31-49.77-39.91,0-31.15,27.88-39.37,54.67-39.37,24.61,0,41,7.13,50.31,12.58l-9.31,25.7c-7.67-4.9-23-10.4-41-10.4-12.58,0-24.06,2.73-24.06,10.4,0,9.85,15.84,10.4,24.61,11.49,36.64,6,52.48,21.34,52.48,45.36,0,31.14-32.78,37.18-57.39,37.18-22.43,0-40.45-5.44-53-12.57C290,204.59,299.3,178.89,299.3,178.89Zm226.84,98.94h-30.6V214.94c-6,2.72-13.67,3.27-21.34,3.27-36.1,0-63.44-20.25-63.44-65.07v-3.76c0-43.18,25.7-65.07,63.44-65.07,10.39,0,35,1.64,51.94,11.49v182ZM442,153.19c0,30.6,14.21,37.19,34.46,37.19,9.31,0,15.85-1.63,19.12-3.81V116c-4.9-2.17-11-3.81-20.25-3.81-20.8,0-33.33,7.13-33.33,37.19v3.81ZM544.76,36.78h31.69V218.85H544.76V36.78Z" style="fill:#4b4a4b"/><path d="M594.52,36.78h30.61V87.63c6-2.72,13.66-3.27,21.34-3.27,36.1,0,63.43,20.26,63.43,65.07v3.81c0,43.73-25.7,65.07-63.43,65.07-10.4,0-35-1.64-52-11.49ZM679.2,149.33c0-30.6-14.71-37.68-35-37.68-8.77,0-15.85,2.18-18.57,3.81V186c4.36,2.18,10.94,3.82,20.25,3.82,20.8,0,33.33-7.14,33.33-37.19ZM742.68,36.78c10.4,0,18.57,7.67,18.57,17.48s-8.22,18-18.57,18c-9.85,0-18.57-8.22-18.57-18S732.28,36.78,742.68,36.78ZM727.33,90.9h30.6V218.26h-30.6Z" style="fill:#eb5e5e"/><path d="M774.32,204.1a14,14,0,0,1,1.88-7,13.69,13.69,0,0,1,5.15-5.15,14.14,14.14,0,0,1,7-1.88,13.92,13.92,0,0,1,7,1.88,13.69,13.69,0,0,1,5.15,5.15,14.14,14.14,0,0,1,1.88,7,13.81,13.81,0,0,1-1.83,6.93,14.09,14.09,0,0,1-19.19,5.3l-.17-.1a14.15,14.15,0,0,1-5.1-5.15A14.89,14.89,0,0,1,774.32,204.1Zm2.63,0a11.31,11.31,0,0,0,5.74,9.85,11.52,11.52,0,0,0,5.7,1.54,11.32,11.32,0,0,0,9.85-5.75,11.47,11.47,0,0,0,1.53-5.69,11.31,11.31,0,0,0-5.74-9.86,11,11,0,0,0-5.69-1.53,11.33,11.33,0,0,0-9.86,5.74,11,11,0,0,0-1.53,5.7ZM794,200.83a4.35,4.35,0,0,1-2.67,4.36l4.4,7.47H791l-3.27-6.34h-.89v6.34h-4.26V195.53h4.95a7.84,7.84,0,0,1,5,1.29,4.91,4.91,0,0,1,1.53,4Zm-7.18,2.38h.59a2,2,0,0,0,2.33-2.33,2.44,2.44,0,0,0-.54-1.74,2.57,2.57,0,0,0-1.83-.49h-.55Z" style="fill:#eb5e5e"/></svg>